{
  "accessors": [
    {
      "bufferView": 2,
      "componentType": 5126,
      "count": 23274,
      "max": [
        0.7598670125007629,
        1.0,
        0.20114700496196747
      ],
      "min": [
        -0.7598670125007629,
        -1.0,
        -0.20114700496196747
      ],
      "type": "VEC3"
    },
    {
      "bufferView": 2,
      "byteOffset": 279288,
      "componentType": 5126,
      "count": 23274,
      "max": [
        1.0,
        0.9999129772186279,
        0.9999701976776123
      ],
      "min": [
        -1.0,
        -1.0,
        -0.9997724294662476
      ],
      "type": "VEC3"
    },
    {
      "bufferView": 1,
      "componentType": 5126,
      "count": 23274,
      "max": [
        0.9989060163497925,
        0.9993460178375244
      ],
      "min": [
        0.002173010027036071,
        0.0011329699773341417
      ],
      "type": "VEC2"
    },
    {
      "bufferView": 0,
      "componentType": 5125,
      "count": 123012,
      "type": "SCALAR"
    }
  ],
  "asset": {
    "extras": {
      "author": "Bajeel (https://sketchfab.com/Bajeel)",
      "license": "CC-BY-4.0 (http://creativecommons.org/licenses/by/4.0/)",
      "source": "https://sketchfab.com/3d-models/mannequin-for-scale-reference-cc2b9be98a884608ad8b157ad9155800",
      "title": "Mannequin for Scale reference."
    },
    "generator": "Sketchfab-13.17.0",
    "version": "2.0"
  },
  "bufferViews": [
    {
      "buffer": 0,
      "byteLength": 492048,
      "name": "floatBufferViews",
      "target": 34963
    },
    {
      "buffer": 0,
      "byteLength": 186192,
      "byteOffset": 492048,
      "byteStride": 8,
      "name": "floatBufferViews",
      "target": 34962
    },
    {
      "buffer": 0,
      "byteLength": 558576,
      "byteOffset": 678240,
      "byteStride": 12,
      "name": "floatBufferViews",
      "target": 34962
    }
  ],
  "buffers": [
    {
      "byteLength": 1236816,
      "uri": "scene.bin"
    }
  ],
  "materials": [
    {
      "doubleSided": true,
      "name": "M_UE4Man_Body",
      "pbrMetallicRoughness": {
        "baseColorFactor": [
          0.5,
          0.5,
          0.5,
          1.0
        ],
        "metallicFactor": 0.0,
        "roughnessFactor": 0.8881966011250105
      }
    }
  ],
  "meshes": [
    {
      "name": "SK_Mannequin_M_UE4Man_Body_0",
      "primitives": [
        {
          "attributes": {
            "NORMAL": 1,
            "POSITION": 0,
            "TEXCOORD_0": 2
          },
          "indices": 3,
          "material": 0,
          "mode": 4
        }
      ]
    }
  ],
  "nodes": [
    {
      "children": [
        1
      ],
      "matrix": [
        1.0,
        0.0,
        0.0,
        0.0,
        0.0,
        2.220446049250313e-16,
        -1.0,
        0.0,
        0.0,
        1.0,
        2.220446049250313e-16,
        0.0,
        0.0,
        0.0,
        0.0,
        1.0
      ],
      "name": "Sketchfab_model"
    },
    {
      "children": [
        2
      ],
      "matrix": [
        0.009999999776482582,
        0.0,
        0.0,
        0.0,
        0.0,
        0.0,
        0.009999999776482582,
        0.0,
        0.0,
        -0.009999999776482582,
        0.0,
        0.0,
        0.0,
        0.0,
        0.0,
        1.0
      ],
      "name": "61d6289f42df4c199fe99044607068d1.fbx"
    },
    {
      "children": [
        3
      ],
      "name": "RootNode"
    },
    {
      "children": [
        4
      ],
      "matrix": [
        100.0,
        0.0,
        0.0,
        0.0,
        0.0,
        99.99999999999866,
        1.6292067073209114e-05,
        0.0,
        0.0,
        -1.6292067073209114e-05,
        99.99999999999866,
        0.0,
        0.0,
        100.0,
        0.0,
        1.0
      ],
      "name": "SK_Mannequin"
    },
    {
      "mesh": 0,
      "name": "SK_Mannequin_M_UE4Man_Body_0"
    }
  ],
  "scene": 0,
  "scenes": [
    {
      "name": "Sketchfab_Scene",
      "nodes": [
        0
      ]
    }
  ]
}
